<svg width="48" height="46" viewBox="0 0 48 46" xmlns="http://www.w3.org/2000/svg">
	<g fill="#3FC1C9" fill-rule="nonzero">
		<path opacity=".2" d="M42.208 5.75v9.583H1.958v1.917h40.25v21.802H1v5.031h45.042V5.75z"/>
		<path d="M46.042 3.833h-9.584V.958a.958.958 0 0 0-1.916 0v2.875H13.458V.958a.958.958 0 0 0-1.916 0v2.875H1.958A1.917 1.917 0 0 0 .042 5.75v38.333C.042 45.142.9 46 1.958 46h44.084a1.917 1.917 0 0 0 1.916-1.917V5.75a1.917 1.917 0 0 0-1.916-1.917zm0 40.25H1.958v-28.75h44.084v28.75zm0-30.666H1.958V5.75h44.084v7.667z"/>
		<path d="M21.47 34.278a.958.958 0 0 0 1.291-.059l9.584-9.583a.958.958 0 0 0-1.355-1.355l-8.965 8.964-5.078-4.232a.959.959 0 1 0-1.228 1.474l5.751 4.791z"/>
	</g>
</svg>