<svg width="50" height="42" viewBox="0 0 50 42" xmlns="http://www.w3.org/2000/svg">
  <g fill="#3FC1C9" fill-rule="nonzero">
    <path d="M29.143 14.434A33.434 33.434 0 0 1 42 25c-1.522 2.799-11.447 13-22.888 13a21.061 21.061 0 0 1-4.192-.434A23.49 23.49 0 0 0 25 40c11.44 0 21.366-10.201 22.888-13a33.264 33.264 0 0 0-18.745-12.566z" opacity=".2"/>
    <path d="M25 12C11.193 12 0 25.242 0 27c0 1.758 11.193 15 25 15s25-13.125 25-15-11.193-15-25-15zm0 28C13.172 40 3.691 29.553 2.142 27 3.692 24.447 13.172 14 25 14c11.44 0 21.366 10.202 22.888 13C46.366 29.799 36.44 40 25 40z"/>
    <path d="M25 20a7 7 0 1 0 0 14 7 7 0 0 0 0-14zm0 12a5 5 0 1 1 0-10 5 5 0 0 1 0 10zM14.134 10.964a1.001 1.001 0 0 0 1.734-1l-2-3.463a1 1 0 0 0-1.733 1l2 3.463zM34.5 11.33a1.001 1.001 0 0 0 1.367-.365l2-3.464a1 1 0 0 0-1.732-1l-2 3.463a.999.999 0 0 0 .365 1.365zM25 8a1 1 0 0 0 1-1V1a1 1 0 0 0-2 0v6a1 1 0 0 0 1 1z"/>
  </g>
</svg>