<svg width="50" height="50" viewBox="0 0 50 50" xmlns="http://www.w3.org/2000/svg">
	<g fill="#3FC1C9" fill-rule="nonzero">
		<path d="M43.89 21.85a2.97 2.97 0 0 1-2.027-2.006 17.586 17.586 0 0 0-1.292-3.135c-.476-.89-.469-1.96.02-2.842l2.063-3.718-2.803-2.803-1.88 1.043c.004.205.03.405.03.611C38.27 24.74 25.738 37.72 10 38c-.534 0-1.055-.052-1.582-.083l-1.073 1.934 2.804 2.803 3.72-2.062c.438-.244.932-.372 1.435-.372.491.001.975.122 1.409.353 1 .53 2.048.963 3.132 1.29a2.972 2.972 0 0 1 2.004 2.027L23.027 48h3.946l1.178-4.11a2.97 2.97 0 0 1 2.003-2.026 17.453 17.453 0 0 0 3.133-1.292c.434-.23.918-.351 1.41-.352.502 0 .996.127 1.435.37l3.719 2.064 2.804-2.804-2.063-3.719a2.969 2.969 0 0 1-.019-2.844c.53-1 .964-2.05 1.292-3.134a2.97 2.97 0 0 1 2.026-2.003L48 26.973v-3.946l-4.11-1.177z" opacity=".2"/>
		<path d="M48.551 21.104l-4.111-1.177a.978.978 0 0 1-.664-.663 19.532 19.532 0 0 0-1.44-3.492.974.974 0 0 1 .003-.935l2.064-3.717a2 2 0 0 0-.334-2.385l-2.804-2.804a1.998 1.998 0 0 0-2.385-.334L35.161 7.66a.963.963 0 0 1-.465.12c-.163 0-.325-.041-.47-.118a19.438 19.438 0 0 0-3.49-1.44.98.98 0 0 1-.663-.663l-1.177-4.11A2 2 0 0 0 26.973 0h-3.946a2 2 0 0 0-1.923 1.45l-1.177 4.109a.98.98 0 0 1-.664.664 19.467 19.467 0 0 0-3.49 1.44 1.005 1.005 0 0 1-.47.118.963.963 0 0 1-.465-.12L11.12 5.597a1.998 1.998 0 0 0-2.385.334L5.931 8.734a2 2 0 0 0-.334 2.386l2.063 3.719c.16.291.16.644.001.935a19.45 19.45 0 0 0-1.44 3.49.977.977 0 0 1-.663.663l-4.11 1.177A2 2 0 0 0 0 23.027v3.946a2 2 0 0 0 1.45 1.923l4.109 1.177c.32.094.57.344.664.663a19.55 19.55 0 0 0 1.44 3.493.973.973 0 0 1-.003.933L5.597 38.88a2 2 0 0 0 .334 2.384l2.804 2.804a2 2 0 0 0 2.385.335l3.718-2.063a.963.963 0 0 1 .466-.12c.164 0 .325.041.47.118a19.46 19.46 0 0 0 3.49 1.44.98.98 0 0 1 .663.664l1.178 4.11A2 2 0 0 0 23.027 50h3.946a2 2 0 0 0 1.922-1.45l1.178-4.109a.977.977 0 0 1 .663-.663 19.505 19.505 0 0 0 3.491-1.44c.144-.077.305-.117.47-.118.162 0 .322.041.465.12l3.718 2.063a2 2 0 0 0 2.385-.335l2.804-2.803a2 2 0 0 0 .334-2.384l-2.063-3.72a.973.973 0 0 1-.002-.935 19.505 19.505 0 0 0 1.44-3.491.981.981 0 0 1 .664-.663l4.109-1.177A2 2 0 0 0 50 26.973v-3.946a2 2 0 0 0-1.449-1.923zM48 26.973l-4.11 1.177a2.97 2.97 0 0 0-2.025 2.003 17.557 17.557 0 0 1-1.292 3.134 2.969 2.969 0 0 0 .018 2.845l2.064 3.719-2.804 2.804-3.72-2.064a2.966 2.966 0 0 0-1.435-.37 3.017 3.017 0 0 0-1.409.352c-1 .531-2.05.964-3.133 1.292a2.97 2.97 0 0 0-2.004 2.026L26.973 48h-3.946l-1.178-4.11a2.972 2.972 0 0 0-2.004-2.027 17.448 17.448 0 0 1-3.132-1.29 3.015 3.015 0 0 0-1.41-.353c-.502 0-.996.128-1.435.372l-3.719 2.062-2.804-2.803 2.063-3.72a2.968 2.968 0 0 0 .02-2.84c-.53-1-.963-2.05-1.292-3.134a2.968 2.968 0 0 0-2.026-2.006L2 26.973v-3.946l4.109-1.177a2.97 2.97 0 0 0 2.026-2.003c.328-1.084.76-2.132 1.291-3.132.48-.89.473-1.962-.017-2.846l-2.064-3.72 2.804-2.803 3.719 2.062a2.967 2.967 0 0 0 2.845.02c1-.531 2.048-.964 3.132-1.292a2.97 2.97 0 0 0 2.004-2.027L23.027 2h3.946l1.177 4.11a2.97 2.97 0 0 0 2.003 2.025c1.083.328 2.133.76 3.133 1.292a3.01 3.01 0 0 0 1.41.353c.502 0 .996-.127 1.435-.37l3.72-2.064 2.804 2.804-2.063 3.717a2.969 2.969 0 0 0-.02 2.842c.53 1 .963 2.05 1.292 3.135a2.97 2.97 0 0 0 2.026 2.006L48 23.027v3.946z"/>
		<path d="M25 14c-6.075 0-11 4.925-11 11s4.925 11 11 11 11-4.925 11-11c-.007-6.072-4.928-10.993-11-11zm0 20a9 9 0 1 1 0-18 9 9 0 0 1 0 18z"/>
	</g>
</svg>
